<svg xmlns="http://www.w3.org/2000/svg" style="display: none;">
  <symbol id="icon-up-diag" viewBox="0 0 16 16">

    <path fill-rule="evenodd" d="M15 2a1 1 0 0 0-1-1H2a1 1 0 0 0-1 1v12a1 1 0 0 0 1 1h12a1 1 0 0 0 1-1zM0 2a2 2 0 0 1 2-2h12a2 2 0 0 1 2 2v12a2 2 0 0 1-2 2H2a2 2 0 0 1-2-2zm5.854 8.803a.5.5 0 1 1-.708-.707L9.243 6H6.475a.5.5 0 1 1 0-1h3.975a.5.5 0 0 1 .5.5v3.975a.5.5 0 1 1-1 0V6.707z"/>

  </symbol>
  <symbol id="icon-moon" viewBox="0 0 16 16">

    <path d="M6 .278a.77.77 0 0 1 .08.858 7.2 7.2 0 0 0-.878 3.46c0 4.021 3.278 7.277 7.318 7.277q.792-.001 1.533-.16a.79.79 0 0 1 .81.316.73.73 0 0 1-.031.893A8.35 8.35 0 0 1 8.344 16C3.734 16 0 12.286 0 7.71 0 4.266 2.114 1.312 5.124.06A.75.75 0 0 1 6 .278"/>

  </symbol>
  <symbol id="icon-sun" viewBox="0 0 16 16">

    <path d="M12 8a4 4 0 1 1-8 0 4 4 0 0 1 8 0M8 0a.5.5 0 0 1 .5.5v2a.5.5 0 0 1-1 0v-2A.5.5 0 0 1 8 0m0 13a.5.5 0 0 1 .5.5v2a.5.5 0 0 1-1 0v-2A.5.5 0 0 1 8 13m8-5a.5.5 0 0 1-.5.5h-2a.5.5 0 0 1 0-1h2a.5.5 0 0 1 .5.5M3 8a.5.5 0 0 1-.5.5h-2a.5.5 0 0 1 0-1h2A.5.5 0 0 1 3 8m10.657-5.657a.5.5 0 0 1 0 .707l-1.414 1.415a.5.5 0 1 1-.707-.708l1.414-1.414a.5.5 0 0 1 .707 0m-9.193 9.193a.5.5 0 0 1 0 .707L3.05 13.657a.5.5 0 0 1-.707-.707l1.414-1.414a.5.5 0 0 1 .707 0m9.193 2.121a.5.5 0 0 1-.707 0l-1.414-1.414a.5.5 0 0 1 .707-.707l1.414 1.414a.5.5 0 0 1 0 .707M4.464 4.465a.5.5 0 0 1-.707 0L2.343 3.05a.5.5 0 1 1 .707-.707l1.414 1.414a.5.5 0 0 1 0 .708"/>

  </symbol>
  <symbol id="icon-hum" viewBox="0 0 16 16">

    <path d="M8 16a6 6 0 0 0 6-6c0-1.655-1.122-2.904-2.432-4.362C10.254 4.176 8.75 2.503 8 0c0 0-6 5.686-6 10a6 6 0 0 0 6 6M6.646 4.646l.708.708c-.29.29-1.128 1.311-1.907 2.87l-.894-.448c.82-1.641 1.717-2.753 2.093-3.13"/>

  </symbol>

</svg>
  

  

